<svg version="1.1" id="Layer_1" xmlns="http://www.w3.org/2000/svg" xmlns:xlink="http://www.w3.org/1999/xlink" x="0px" y="0px"
	 viewBox="137 260 322 322" style="enable-background:new 137 260 322 322;" xml:space="preserve">
<style type="text/css">
	.st0{fill:#1C55A4;}
	.st1{fill:#209FCF;}
</style>
<g>
	<g>
		<path class="st0" d="M216.31,504.63c0,0,99.54-180.84,178.81-185.04s-4.4,117.07-47.57,136.59c0,0,85.71-94.8,55.77-118.9
			c0,0-23.35-22.3-100.34,68.12c0,0-1.16,2.1,0.82,5.27c1.98,3.17,58.72,93.96,58.72,93.96h-52.26l-39.17-58.92
			c0,0-0.79-1.53-4.34,2.01c-3.54,3.54-21.67,21.67-21.67,21.67v35.23H216.31z"/>
		<path class="st0" d="M201.04,461.25c0,0,9.87-15.59,22.38-34.75c6.69-10.25,12.17-21.53,21.67-31.99v-72.22h-44.04V461.25z"/>
		<path class="st1" d="M164.92,581.55c0,0,5.58-209.35,265.43-321.21C430.35,260.34,223.65,361.93,164.92,581.55z"/>
	</g>
	<polygon class="st0" points="245.08,469.39 270.3,445.38 310.26,504.63 362.53,504.63 302.65,407.2 322.13,384.01 284.75,412.05 
		246.5,462.64 	"/>
</g>
</svg>
